<svg width="24" height="24" viewBox="0 0 24 24" fill="none" xmlns="http://www.w3.org/2000/svg">
<path fill-rule="evenodd" clip-rule="evenodd" d="M17.6438 3.86597C14.655 1.41501 11.1135 1.6449 7.15691 1.90174L7.13349 1.90326C5.73157 1.9932 4.29505 2.08506 2.83082 2.06619C2.66857 2.06287 2.50791 2.09766 2.36134 2.16767C2.21499 2.23758 2.08683 2.34061 1.98649 2.46846C1.88445 2.59546 1.81278 2.7444 1.77672 2.9036C1.74061 3.06298 1.74111 3.22865 1.77816 3.3878C2.05669 4.63149 2.24629 5.86881 2.43259 7.08453L2.43259 7.08453C2.46455 7.29312 2.49655 7.50195 2.52875 7.70919L2.53494 7.75097C3.12541 11.7382 3.65319 15.302 6.62677 17.7585L6.6276 17.7592C8.17146 19.0235 10.0948 19.7109 12.077 19.7059C14.0737 19.7093 16.0085 19.0203 17.5654 17.7578C18.6123 19.265 19.4959 20.8837 20.2004 22.5857C20.2541 22.7161 20.3327 22.8348 20.4317 22.9349C20.5309 23.0351 20.6488 23.1147 20.7787 23.1688C20.9086 23.223 21.0479 23.2506 21.1885 23.25C21.3291 23.2494 21.4682 23.2206 21.5976 23.1653C21.7271 23.11 21.8442 23.0294 21.9426 22.9284C22.0409 22.8274 22.1185 22.7078 22.1712 22.5768C22.2238 22.4457 22.2506 22.3055 22.25 22.1641C22.2494 22.0228 22.2214 21.8825 22.1676 21.7519C21.3536 19.7807 20.3182 17.9122 19.0824 16.1838C20.4384 14.3699 21.0619 12.0941 20.8211 9.82381C20.5735 7.49073 19.4328 5.35006 17.6448 3.86686L17.6438 3.86597ZM2.52875 7.70919L2.52849 7.70743L2.77576 7.67081L2.52875 7.70919ZM1.77816 3.3878L1.77792 3.38671L2.02187 3.33207L1.77845 3.38904L1.77816 3.3878ZM2.18227 2.62392L1.98766 2.46701L1.98649 2.46846L1.98534 2.46992L2.18227 2.62392ZM2.82658 2.31614L2.82981 2.06618L2.83082 2.06619L2.83198 2.06621L2.82658 2.31614ZM7.26719 4.06636C11.2385 3.81144 13.9807 3.64819 16.2994 5.55394C17.5997 6.63465 18.45 8.17873 18.6769 9.87486C18.8892 11.461 18.5414 13.0681 17.7026 14.4121C15.5626 11.8696 12.9845 9.74509 10.0941 8.14402C9.8453 8.00594 9.55228 7.97401 9.27993 8.05578C9.00771 8.1375 8.77994 8.32559 8.6455 8.577C8.51114 8.82826 8.48042 9.12306 8.55965 9.39697C8.63891 9.67097 8.82234 9.90317 9.07096 10.0411C11.8238 11.5664 14.2692 13.6069 16.2791 16.0552C15.1381 16.9945 13.7221 17.5231 12.2523 17.5549C10.7036 17.5884 9.19162 17.0683 7.97904 16.0841C5.6611 14.1681 5.23234 11.401 4.63788 7.39187C4.4859 6.363 4.32869 5.3037 4.12524 4.22429C5.18308 4.19909 6.21389 4.13344 7.21527 4.06967L7.26719 4.06636Z" fill="#574CFF"/>
</svg>
